<?xml version="1.0" encoding="UTF-8"?>
<svg id="Layer_2" data-name="Layer 2" xmlns="http://www.w3.org/2000/svg" viewBox="0 0 314.81 470.3">
  <defs>
    <style>
      .cls-1 {
        fill: #fff;
        stroke-width: 0px;
      }
    </style>
  </defs>
  <g id="Layer_1-2" data-name="Layer 1">
    <g>
      <path class="cls-1" d="M254.07,173.81c-.08,5.24-.39,10.51-.95,15.82-2.21,21.14-8.28,42.35-17.95,63.08-10.08,21.64-24.09,42.75-41.71,62.72-20.71,23.47-36.28,53.2-40.24,83.33-3.23,24.56,1.26,49.41,16.97,71.34-2.6.12-5.19.19-7.81.19-28.01,0-54.39-7.13-77.41-19.67-4.16-18.77-5.09-38.5-2.67-58.86,1.2-10.11,3.25-20.28,6.11-30.37,9.31-32.86,27.12-65.05,51.75-92.97,14.87-16.86,25.88-34.09,32.98-51.19,10.13-24.42,12.26-48.54,6.19-70.81-3.81-14.04-10.88-27.34-21.25-39.52-16.24-19.08-37.9-31.69-62.62-36.48-19.27-3.73-31.87-22.37-28.14-41.63C71.06,9.52,89.7-3.07,108.97.65c40.72,7.88,76.42,28.69,103.23,60.18,28.13,33.03,42.42,71.81,41.87,112.97Z"/>
      <path class="cls-1" d="M306.26,383.25c-26.94,51.37-78.58,84.14-136.08,86.87-2.6.12-5.19.19-7.81.19-28.01,0-54.39-7.13-77.41-19.67C34.39,423.09,0,369.45,0,307.92c0-89.54,72.84-162.38,162.38-162.38,5.71,0,11.36.3,16.95.89,27.22,2.82,52.81,12.41,74.73,27.39,25.17,17.21,45.5,41.53,57.93,70.91,7.64,18.08-.82,38.92-18.9,46.56-18.08,7.64-38.92-.81-46.56-18.89-3.01-7.12-6.85-13.72-11.37-19.68-14.88-19.65-37.2-32.56-62.02-35.48-3.54-.41-7.14-.63-10.76-.63-50.35,0-91.31,40.96-91.31,91.31,0,19.95,6.44,38.44,17.34,53.47,14.91,20.58,38.19,34.72,64.8,37.38,3.02.31,6.08.46,9.17.46,34.08,0,65.09-18.78,80.94-48.99,9.12-17.38,30.59-24.08,47.97-14.97,17.38,9.12,24.08,30.6,14.96,47.97Z"/>
    </g>
  </g>
</svg>