<?xml version="1.0" encoding="UTF-8"?>
<svg id="Layer_2" data-name="Layer 2" xmlns="http://www.w3.org/2000/svg" viewBox="0 0 744.6 374.36">
  <defs>
    <style>
      .cls-1 {
        fill: #fff;
        stroke-width: 0px;
      }
    </style>
  </defs>
  <g id="Layer_1-2" data-name="Layer 1">
    <g>
      <g>
        <path class="cls-1" d="M19.11,354.1c-3.72,0-7.03-.9-9.93-2.71-2.9-1.8-5.16-4.29-6.77-7.46-1.61-3.17-2.42-6.78-2.42-10.83,0-4.48.97-8.47,2.91-11.97s4.58-6.26,7.92-8.29c3.33-2.02,7.08-3.04,11.24-3.04,1.91,0,3.83.22,5.74.66,1.91.44,3.74,1.23,5.5,2.38v-14.19c0-1.75-.38-2.99-1.15-3.73-.77-.74-2.52-1.27-5.25-1.6v-2.05l12.63-3.61h1.15v55.28c0,1.69.38,2.93,1.15,3.69.76.76,2.57,1.31,5.41,1.64v2.22l-12.55,2.95h-1.15v-5.66h-.74c-1.53,1.64-3.07,2.93-4.63,3.85-1.56.93-3.09,1.57-4.59,1.93s-2.99.53-4.47.53ZM22.97,348.76c1.69,0,3.42-.31,5.17-.94,1.75-.63,3.47-1.82,5.17-3.57v-19.03c0-2.9-.58-5.25-1.72-7.05-1.15-1.81-2.61-3.13-4.39-3.98-1.78-.85-3.68-1.27-5.7-1.27-4.48,0-7.9,1.42-10.25,4.26-2.35,2.84-3.53,6.95-3.53,12.3,0,3.88.63,7.27,1.89,10.17s3.04,5.14,5.33,6.73c2.3,1.59,4.98,2.38,8.04,2.38Z"/>
        <path class="cls-1" d="M71.52,354.1c-4.05,0-7.6-.94-10.66-2.83-3.06-1.89-5.43-4.44-7.09-7.67s-2.5-6.86-2.5-10.91c0-4.43.97-8.37,2.91-11.81s4.55-6.15,7.83-8.12c3.28-1.97,6.89-2.95,10.83-2.95,4.32,0,7.79,1.23,10.42,3.69,2.63,2.46,3.94,6.04,3.94,10.74v1.03c0,.36-.05.83-.16,1.44l-.16,1.15h-29.45v-3.11h21.66c.16-1.1.25-2.11.25-3.04,0-2.73-.71-4.87-2.13-6.4-1.42-1.53-3.47-2.3-6.15-2.3-3.66,0-6.63,1.45-8.9,4.35-2.27,2.9-3.4,6.78-3.4,11.65,0,3.66.67,6.96,2.01,9.88,1.34,2.93,3.25,5.22,5.74,6.89,2.49,1.67,5.43,2.5,8.82,2.5,1.91,0,3.77-.33,5.58-.98s3.72-1.75,5.74-3.28l1.64,1.56c-2.63,3.01-5.28,5.18-7.96,6.52-2.68,1.34-5.6,2.01-8.78,2.01Z"/>
        <path class="cls-1" d="M107.04,354.1c-2.08,0-4.28-.25-6.6-.74-2.33-.49-4.23-1.15-5.7-1.97v-11.07h2.38c.6,3.83,1.93,6.58,3.98,8.24,2.05,1.67,4.39,2.5,7.01,2.5s4.48-.66,5.91-1.97c1.42-1.31,2.13-3.04,2.13-5.17,0-1.91-.56-3.4-1.68-4.47-1.12-1.07-2.64-2.09-4.55-3.07l-5.91-3.12c-3.5-1.86-5.82-3.72-6.97-5.58-1.15-1.86-1.72-3.72-1.72-5.58,0-2.46.67-4.61,2.01-6.44,1.34-1.83,3.18-3.27,5.54-4.3,2.35-1.04,5.03-1.56,8.04-1.56,2.02,0,3.92.22,5.7.66,1.78.44,3.38.99,4.8,1.64v9.52h-2.38c-.33-1.59-.88-3.04-1.64-4.35-.77-1.31-1.79-2.38-3.08-3.2-1.29-.82-2.91-1.23-4.88-1.23-2.46,0-4.35.63-5.66,1.89-1.31,1.26-1.97,2.82-1.97,4.67,0,1.53.48,2.87,1.44,4.02.96,1.15,2.53,2.3,4.72,3.45l5.41,2.79c3.06,1.53,5.37,3.12,6.93,4.76,1.56,1.64,2.34,3.83,2.34,6.56s-.74,5.24-2.21,7.18-3.4,3.42-5.78,4.43c-2.38,1.01-4.91,1.52-7.59,1.52Z"/>
        <path class="cls-1" d="M127.87,353.28v-2.46l2.46-.41c1.64-.27,2.73-.73,3.28-1.35s.82-1.79.82-3.48v-24.44c0-1.75-.38-3-1.15-3.73-.77-.74-2.52-1.27-5.25-1.6v-2.05l12.63-3.61h1.15v35.44c0,1.69.27,2.86.82,3.48s1.64,1.08,3.28,1.35l2.46.41v2.46h-20.51ZM137.31,303.82c-1.37,0-2.51-.45-3.45-1.35-.93-.9-1.39-2.06-1.39-3.49s.46-2.57,1.39-3.45c.93-.87,2.08-1.31,3.45-1.31s2.43.44,3.36,1.31c.93.88,1.39,2.02,1.39,3.45s-.46,2.58-1.39,3.49c-.93.9-2.05,1.35-3.36,1.35Z"/>
        <path class="cls-1" d="M167.24,374.36c-4.65,0-8.38-.93-11.2-2.79-2.82-1.86-4.23-4.26-4.23-7.22,0-1.15.31-2.45.94-3.9.63-1.45,1.87-3.1,3.73-4.96l4.51-4.51,3.12.49c-1.86,2.13-3.29,3.9-4.31,5.29-1.01,1.4-1.52,2.86-1.52,4.39,0,2.46,1.19,4.33,3.57,5.62s5.65,1.93,9.8,1.93c4.59,0,8.19-.87,10.79-2.63,2.6-1.75,3.9-4.05,3.9-6.89,0-1.8-.6-3.11-1.8-3.94-1.2-.82-3.39-1.34-6.56-1.56l-15.83-1.15c-2.52-.22-4.55-.86-6.11-1.93-1.56-1.07-2.34-2.45-2.34-4.14,0-1.42.49-2.6,1.48-3.53.98-.93,2.24-2.11,3.77-3.53l2.54-2.46h3.53l-2.46,2.79c-.77.87-1.27,1.52-1.52,1.93-.25.41-.37.83-.37,1.27,0,.71.29,1.28.86,1.72.57.44,1.52.71,2.83.82l15.67,1.31c7,.55,10.5,3.69,10.5,9.43,0,3.39-1.05,6.45-3.16,9.18-2.11,2.73-4.91,4.91-8.41,6.52-3.5,1.61-7.41,2.42-11.73,2.42ZM168.8,338.84c-3.06,0-5.8-.62-8.2-1.85-2.41-1.23-4.29-2.94-5.66-5.13-1.37-2.19-2.05-4.68-2.05-7.47s.7-5.36,2.09-7.55c1.39-2.19,3.32-3.91,5.78-5.17,2.46-1.26,5.25-1.89,8.37-1.89l3.36.25c3.72.66,6.74,2.24,9.06,4.76,2.32,2.52,3.49,5.61,3.49,9.27,0,2.84-.7,5.37-2.09,7.59s-3.32,3.96-5.78,5.25c-2.46,1.28-5.25,1.93-8.37,1.93ZM169.62,335.64c2.63,0,4.65-.89,6.07-2.67,1.42-1.78,2.13-4.33,2.13-7.67,0-2.52-.38-4.69-1.15-6.52-.77-1.83-1.86-3.25-3.28-4.26-1.42-1.01-3.12-1.52-5.09-1.52-2.63,0-4.65.89-6.07,2.66-1.42,1.78-2.13,4.34-2.13,7.67,0,2.52.38,4.69,1.15,6.52.76,1.83,1.87,3.25,3.32,4.26,1.45,1.01,3.13,1.52,5.04,1.52ZM169.13,311.04v-1.23l20.34-3.94h1.56v5.17h-21.9Z"/>
        <path class="cls-1" d="M193.24,353.28v-2.46l2.46-.41c1.64-.27,2.73-.73,3.28-1.35s.82-1.79.82-3.48v-24.44c0-1.75-.38-3-1.15-3.73-.77-.74-2.52-1.27-5.25-1.6v-2.05l12.39-3.61h1.15v5.99h.49c2.63-2.3,5.06-3.92,7.3-4.88,2.24-.96,4.87-1.44,7.87-1.44,3.88,0,6.93.97,9.15,2.91,2.21,1.94,3.32,4.69,3.32,8.24v24.61c0,1.69.27,2.86.82,3.48s1.64,1.08,3.28,1.35l2.46.41v2.46h-20.51v-2.46l2.46-.41c1.64-.27,2.73-.73,3.28-1.35s.82-1.79.82-3.48v-22.15c0-2.02-.36-3.66-1.07-4.92-.71-1.26-1.76-2.2-3.16-2.83-1.39-.63-3.19-.94-5.37-.94s-4.05.37-5.74,1.11c-1.7.74-3.42,1.9-5.17,3.48v26.25c0,1.69.27,2.86.82,3.48s1.64,1.08,3.28,1.35l2.46.41v2.46h-20.51Z"/>
        <path class="cls-1" d="M265.83,354.1c-4.05,0-7.6-.94-10.66-2.83-3.06-1.89-5.43-4.44-7.09-7.67s-2.5-6.86-2.5-10.91c0-4.43.97-8.37,2.91-11.81s4.55-6.15,7.83-8.12c3.28-1.97,6.89-2.95,10.83-2.95,4.32,0,7.79,1.23,10.42,3.69,2.63,2.46,3.94,6.04,3.94,10.74v1.03c0,.36-.05.83-.16,1.44l-.16,1.15h-29.45v-3.11h21.66c.16-1.1.25-2.11.25-3.04,0-2.73-.71-4.87-2.13-6.4-1.42-1.53-3.47-2.3-6.15-2.3-3.66,0-6.63,1.45-8.9,4.35-2.27,2.9-3.4,6.78-3.4,11.65,0,3.66.67,6.96,2.01,9.88,1.34,2.93,3.25,5.22,5.74,6.89,2.49,1.67,5.43,2.5,8.82,2.5,1.91,0,3.77-.33,5.58-.98s3.72-1.75,5.74-3.28l1.64,1.56c-2.63,3.01-5.28,5.18-7.96,6.52-2.68,1.34-5.6,2.01-8.78,2.01Z"/>
        <path class="cls-1" d="M307.09,354.1c-3.72,0-7.03-.9-9.93-2.71-2.9-1.8-5.16-4.29-6.77-7.46-1.61-3.17-2.42-6.78-2.42-10.83,0-4.48.97-8.47,2.91-11.97s4.58-6.26,7.92-8.29c3.33-2.02,7.08-3.04,11.24-3.04,1.91,0,3.83.22,5.74.66,1.91.44,3.74,1.23,5.5,2.38v-14.19c0-1.75-.38-2.99-1.15-3.73-.77-.74-2.52-1.27-5.25-1.6v-2.05l12.63-3.61h1.15v55.28c0,1.69.38,2.93,1.15,3.69.76.76,2.57,1.31,5.41,1.64v2.22l-12.55,2.95h-1.15v-5.66h-.74c-1.53,1.64-3.07,2.93-4.63,3.85-1.56.93-3.09,1.57-4.59,1.93s-2.99.53-4.47.53ZM310.95,348.76c1.69,0,3.42-.31,5.17-.94,1.75-.63,3.47-1.82,5.17-3.57v-19.03c0-2.9-.58-5.25-1.72-7.05-1.15-1.81-2.61-3.13-4.39-3.98-1.78-.85-3.68-1.27-5.7-1.27-4.48,0-7.9,1.42-10.25,4.26-2.35,2.84-3.53,6.95-3.53,12.3,0,3.88.63,7.27,1.89,10.17s3.04,5.14,5.33,6.73c2.3,1.59,4.98,2.38,8.04,2.38Z"/>
        <path class="cls-1" d="M342.36,354.1v-55.45c0-1.75-.38-2.99-1.15-3.73-.77-.74-2.52-1.27-5.25-1.6v-2.05l12.63-3.61h1.15v28.46h.49c1.48-1.48,2.92-2.68,4.35-3.61,1.42-.93,2.9-1.61,4.43-2.05,1.53-.43,3.17-.66,4.92-.66,3.77,0,7.09.89,9.97,2.67,2.87,1.78,5.11,4.22,6.72,7.34,1.61,3.12,2.42,6.75,2.42,10.91,0,4.54-1,8.57-2.99,12.1-2,3.53-4.72,6.29-8.16,8.29-3.45,1.99-7.35,2.99-11.73,2.99-2.35,0-4.65-.33-6.89-.98-2.24-.66-4.24-1.64-5.99-2.95l-2.46,3.94h-2.46ZM361.39,350.98c4.38,0,7.79-1.49,10.25-4.47,2.46-2.98,3.69-7.18,3.69-12.59,0-3.77-.59-7.07-1.76-9.88s-2.86-5.01-5.04-6.56-4.81-2.34-7.87-2.34c-2.02,0-3.97.37-5.82,1.11-1.86.74-3.56,1.87-5.09,3.4v18.62c0,2.63.44,4.88,1.31,6.77.87,1.88,2.17,3.35,3.9,4.39s3.87,1.56,6.44,1.56Z"/>
        <path class="cls-1" d="M392.64,373.54v-1.23l14.52-20.92-14.27-31.91c-.88-1.91-1.79-3.36-2.75-4.35s-2.01-1.58-3.16-1.81l-1.39-.25v-2.46h20.34v2.46l-2.05.16c-3.88.33-5,2.41-3.36,6.23l11.32,26.66-2.38.08,9.93-25.02c1.09-2.68,1.32-4.63.7-5.87-.63-1.23-1.9-1.93-3.82-2.09l-1.72-.16v-2.46h17.06v2.46l-1.72.25c-.93.11-1.72.39-2.38.82-.66.44-1.3,1.17-1.93,2.21-.63,1.04-1.35,2.54-2.17,4.51l-22.31,52.66h-8.45Z"/>
        <path class="cls-1" d="M454.57,354.1c-3.99,0-7.53-.94-10.62-2.83-3.09-1.89-5.51-4.46-7.26-7.71-1.75-3.25-2.62-6.93-2.62-11.03,0-4.37.97-8.27,2.91-11.69s4.61-6.11,8-8.08c3.39-1.97,7.22-2.95,11.48-2.95,2.84,0,5.32.39,7.42,1.15,2.1.76,3.74,1.69,4.92,2.79,1.17,1.1,1.76,2.13,1.76,3.12,0,.88-.44,1.6-1.31,2.17-.88.58-1.83.92-2.87,1.03-1.04.11-1.83-.05-2.38-.49l-5.25-4.67c-.71-.66-1.42-1.11-2.13-1.35-.71-.25-1.61-.37-2.71-.37-2.52,0-4.7.74-6.56,2.22-1.86,1.48-3.29,3.46-4.31,5.95-1.01,2.49-1.52,5.26-1.52,8.33,0,3.61.7,6.81,2.09,9.6,1.39,2.79,3.34,4.99,5.82,6.6,2.49,1.61,5.32,2.42,8.49,2.42,1.91,0,3.8-.33,5.66-.98,1.86-.66,3.8-1.75,5.82-3.28l1.64,1.56c-2.57,3.01-5.2,5.18-7.87,6.52s-5.55,2.01-8.61,2.01Z"/>
        <path class="cls-1" d="M498.04,354.1c-4.38,0-8.23-.93-11.56-2.79-3.34-1.86-5.93-4.46-7.79-7.79-1.86-3.34-2.79-7.19-2.79-11.56s.93-7.9,2.79-11.24c1.86-3.33,4.44-5.99,7.75-7.96,3.31-1.97,7.18-2.95,11.61-2.95s8.31.93,11.65,2.79c3.33,1.86,5.93,4.44,7.79,7.75,1.86,3.31,2.79,7.15,2.79,11.52s-.93,7.91-2.79,11.28c-1.86,3.36-4.44,6.03-7.75,8-3.31,1.97-7.21,2.95-11.69,2.95ZM499.35,350.9c3.72,0,6.81-1.39,9.27-4.18,2.46-2.79,3.69-7,3.69-12.63,0-3.72-.59-7.18-1.76-10.37-1.18-3.2-2.91-5.78-5.21-7.75-2.3-1.97-5.14-2.95-8.53-2.95-3.72,0-6.81,1.4-9.27,4.18-2.46,2.79-3.69,7.03-3.69,12.71,0,3.66.59,7.1,1.76,10.3,1.18,3.2,2.91,5.78,5.21,7.75,2.3,1.97,5.14,2.95,8.53,2.95Z"/>
        <path class="cls-1" d="M525.02,353.28v-2.46l2.46-.41c1.64-.27,2.73-.73,3.28-1.35s.82-1.79.82-3.48v-24.44c0-1.75-.38-3-1.15-3.73-.77-.74-2.52-1.27-5.25-1.6v-2.05l12.39-3.61h1.15v5.99h.49c2.63-2.3,5.03-3.92,7.22-4.88,2.19-.96,4.54-1.44,7.05-1.44s4.55.48,6.44,1.44c1.89.96,3.19,2.66,3.9,5.13h.41c2.84-2.4,5.37-4.1,7.59-5.08,2.21-.99,4.58-1.48,7.09-1.48,2.02,0,3.85.32,5.5.94s2.95,1.67,3.94,3.12c.98,1.45,1.48,3.46,1.48,6.03v25.68c0,1.69.27,2.86.82,3.48.54.63,1.64,1.08,3.28,1.35l2.46.41v2.46h-20.51v-2.46l2.46-.41c1.64-.27,2.73-.73,3.28-1.35s.82-1.79.82-3.48v-23.21c0-2.19-.32-3.83-.94-4.92-.63-1.09-1.49-1.82-2.58-2.17-1.09-.36-2.35-.53-3.77-.53-2.02,0-3.85.37-5.5,1.11-1.64.74-3.39,1.9-5.25,3.48v26.25c0,1.69.27,2.86.82,3.48.55.63,1.64,1.08,3.28,1.35l2.46.41v2.46h-20.5v-2.46l2.46-.41c1.64-.27,2.73-.73,3.28-1.35.55-.63.82-1.79.82-3.48v-23.21c0-2.19-.31-3.83-.94-4.92-.63-1.09-1.49-1.82-2.58-2.17-1.09-.36-2.35-.53-3.77-.53-2.02,0-3.88.37-5.58,1.11-1.7.74-3.42,1.9-5.17,3.48v26.25c0,1.69.27,2.86.82,3.48s1.64,1.08,3.28,1.35l2.46.41v2.46h-20.51Z"/>
        <path class="cls-1" d="M599.75,353.28v-2.46l2.46-.41c1.69-.27,2.8-.73,3.32-1.35.52-.63.78-1.79.78-3.48v-30.02h-7.3v-1.23l2.13-3.69h5.17v-1.31c0-2.95.61-5.75,1.85-8.41,1.23-2.65,2.9-5,5-7.05,2.1-2.05,4.46-3.65,7.05-4.8,2.6-1.15,5.26-1.72,8-1.72,2.13,0,4.06.41,5.78,1.23s2.58,1.92,2.58,3.28c0,.93-.48,1.75-1.43,2.46-.96.71-1.98.79-3.08.25l-6.32-2.95c-.66-.27-1.29-.41-1.89-.41-1.37,0-2.84.64-4.43,1.93-1.59,1.29-2.94,3.06-4.06,5.33-1.12,2.27-1.68,4.88-1.68,7.83v4.35h13.94v1.23l-2.13,3.69h-11.81v29.2c0,1.86.33,3.2.98,4.02.66.82,1.83,1.34,3.53,1.56l3.69.49v2.46h-22.15Z"/>
        <path class="cls-1" d="M652.65,354.1c-4.38,0-8.23-.93-11.56-2.79-3.34-1.86-5.93-4.46-7.79-7.79-1.86-3.34-2.79-7.19-2.79-11.56s.93-7.9,2.79-11.24c1.86-3.33,4.44-5.99,7.75-7.96,3.31-1.97,7.18-2.95,11.61-2.95s8.31.93,11.65,2.79c3.33,1.86,5.93,4.44,7.79,7.75,1.86,3.31,2.79,7.15,2.79,11.52s-.93,7.91-2.79,11.28c-1.86,3.36-4.44,6.03-7.75,8-3.31,1.97-7.21,2.95-11.69,2.95ZM653.96,350.9c3.72,0,6.81-1.39,9.27-4.18,2.46-2.79,3.69-7,3.69-12.63,0-3.72-.59-7.18-1.76-10.37-1.18-3.2-2.91-5.78-5.21-7.75-2.3-1.97-5.14-2.95-8.53-2.95-3.72,0-6.81,1.4-9.27,4.18-2.46,2.79-3.69,7.03-3.69,12.71,0,3.66.59,7.1,1.76,10.3,1.18,3.2,2.91,5.78,5.21,7.75,2.3,1.97,5.14,2.95,8.53,2.95Z"/>
        <path class="cls-1" d="M679.64,353.28v-2.46l2.46-.41c1.7-.27,2.8-.73,3.32-1.35.52-.63.78-1.79.78-3.48v-24.44c0-1.86-.42-3.13-1.27-3.82-.85-.68-2.56-1.19-5.13-1.52v-2.05l12.39-3.61h1.15v6.56h.74c1.37-1.97,3.05-3.58,5.04-4.84,2-1.26,4.28-1.89,6.85-1.89,1.97,0,3.46.41,4.47,1.23,1.01.82,1.52,1.88,1.52,3.2,0,.87-.34,1.67-1.03,2.38-.68.71-1.49,1.19-2.42,1.44-.93.25-1.83.12-2.71-.37l-3.94-2.3c-.66-.38-1.45-.33-2.38.16s-1.85,1.14-2.75,1.93c-.9.79-1.65,1.56-2.26,2.3-.6.74-.9,1.16-.9,1.27v24.36c0,1.69.27,2.86.82,3.48s1.64,1.05,3.28,1.27l4.1.49v2.46h-22.15Z"/>
        <path class="cls-1" d="M730.16,354.1c-3.39,0-6.1-.87-8.12-2.63-2.02-1.75-3.04-4.59-3.04-8.53v-27.4h-5.17v-2.46c4.26-2.35,7.65-5.47,10.17-9.35h2.46v36.99c0,2.13.36,3.75,1.07,4.84.71,1.09,1.68,1.82,2.91,2.17,1.23.36,2.55.53,3.98.53,1.86,0,3.47-.27,4.84-.82,1.37-.55,2.65-1.17,3.85-1.88l1.48,1.72c-1.7,1.75-3.75,3.32-6.15,4.72-2.41,1.39-5.17,2.09-8.28,2.09ZM722.86,315.55v-4.92h20.75v1.23l-2.13,3.69h-18.62Z"/>
      </g>
      <g>
        <path class="cls-1" d="M416.43,82c-.04,2.47-.18,4.96-.45,7.46-1.04,9.98-3.91,19.98-8.47,29.76-4.76,10.21-11.37,20.17-19.68,29.59-9.77,11.07-17.12,25.1-18.99,39.32-1.53,11.59.59,23.31,8.01,33.66-1.22.06-2.45.09-3.68.09-13.22,0-25.66-3.36-36.52-9.28-1.96-8.85-2.4-18.16-1.26-27.77.57-4.77,1.54-9.57,2.88-14.33,4.39-15.5,12.79-30.69,24.42-43.87,7.02-7.95,12.21-16.08,15.56-24.15,4.78-11.52,5.78-22.9,2.92-33.41-1.8-6.62-5.13-12.9-10.02-18.65-7.66-9-17.88-14.95-29.55-17.21-9.09-1.76-15.03-10.55-13.28-19.64,1.76-9.09,10.55-15.03,19.65-13.28,19.21,3.72,36.06,13.54,48.71,28.39,13.27,15.58,20.02,33.88,19.75,53.3Z"/>
        <path class="cls-1" d="M441.05,180.82c-12.71,24.24-37.08,39.7-64.2,40.98-1.22.06-2.45.09-3.68.09-13.22,0-25.66-3.36-36.52-9.28-23.86-12.99-40.09-38.3-40.09-67.33,0-42.25,34.37-76.61,76.61-76.61,2.69,0,5.36.14,8,.42,12.84,1.33,24.91,5.86,35.26,12.92,11.88,8.12,21.47,19.59,27.33,33.46,3.61,8.53-.39,18.36-8.92,21.97-8.53,3.61-18.36-.38-21.97-8.91-1.42-3.36-3.23-6.47-5.36-9.29-7.02-9.27-17.55-15.36-29.26-16.74-1.67-.19-3.37-.3-5.08-.3-23.76,0-43.08,19.33-43.08,43.08,0,9.41,3.04,18.14,8.18,25.23,7.04,9.71,18.02,16.38,30.58,17.63,1.42.15,2.87.22,4.32.22,16.08,0,30.71-8.86,38.19-23.12,4.3-8.2,14.43-11.36,22.64-7.06,8.2,4.3,11.36,14.44,7.06,22.64Z"/>
      </g>
    </g>
  </g>
</svg>