<svg width="400" height="400" viewBox="0 0 400 400" fill="none" xmlns="http://www.w3.org/2000/svg">
<rect width="400" height="400" rx="24" fill="#008000"/>
<g clip-path="url(#clip0_373_256)">
<path d="M290.835 212.765L285.795 124.965C285.605 121.775 282.875 119.335 279.675 119.515L216.375 123.155L216.305 161.295C216.305 162.305 215.975 163.125 215.315 163.735C214.645 164.345 213.865 164.655 212.945 164.655L198.745 162.665C197.005 162.465 196.045 161.395 195.835 159.455L193.805 124.455L116.015 128.925C111.525 129.175 108.355 133.405 109.335 137.785L136.515 258.915C138.135 265.955 139.685 272.615 141.115 278.875C141.605 281.005 144.635 281.035 145.175 278.925L157.545 231.035C158.175 228.595 160.315 226.835 162.815 226.705L231.695 222.745L285.385 218.905C288.575 218.715 291.015 215.985 290.835 212.785V212.765ZM220.125 194.745C219.615 195.255 218.905 195.515 217.995 195.515L195.845 195.205C194.925 195.105 194.235 194.795 193.785 194.285C193.325 193.775 193.095 193.215 193.095 192.605L194.925 179.775C195.125 178.345 195.995 177.635 197.525 177.635L217.375 176.415C219.205 176.415 220.225 177.275 220.425 179.005L220.875 192.905C220.875 193.615 220.625 194.235 220.115 194.735L220.125 194.745Z" fill="white"/>
</g>
<defs>
<clipPath id="clip0_373_256">
<rect width="181.69" height="160.97" fill="white" transform="translate(109.154 119.515)"/>
</clipPath>
</defs>
</svg>
